<svg xmlns="http://www.w3.org/2000/svg" viewBox="0 0 64 64" role="img"><rect width="64" height="64" rx="18" fill="#25D366"/><path d="M32 8a23 23 0 0 0-19.7 34.9L9 56l13.4-3.2A23 23 0 1 0 32 8Zm13.3 33.2c-.6 1.7-3.5 3.2-5 3.4-1.3.2-3 .3-8.6-2-7.3-3-12-10.4-12.4-10.9-.4-.5-3-4-3-7.6s1.9-5.4 2.6-6.1c.6-.7 1.4-.9 1.9-.9h1.3c.4 0 1-.2 1.6 1.2l2.2 5.3c.2.5.3 1.1.1 1.6-.2.5-.4.8-.8 1.2l-1.2 1.4c-.4.4-.8.9-.3 1.7.5.9 2.1 3.5 4.6 5.6 3.1 2.8 5.8 3.7 6.7 4.1.8.4 1.3.3 1.8-.2l2.6-3c.6-.8 1.2-.6 2-.4l5 2.4c.9.4 1.5.7 1.7 1.1.2.4.2 2.2-.4 3.9Z" fill="white"/></svg>