<svg xmlns="http://www.w3.org/2000/svg" viewBox="0 0 64 64" role="img"><rect width="64" height="64" rx="18" fill="#FF0000"/><path d="M55 22.5s-.5-3.8-2.1-5.5c-2-2.1-4.3-2.1-5.4-2.2C40 14.2 32 14.2 32 14.2h0s-8 0-15.5.6c-1.1.1-3.4.1-5.4 2.2C9.5 18.7 9 22.5 9 22.5S8.5 27 8.5 31.6v4.3c0 4.5.5 9.1.5 9.1s.5 3.8 2.1 5.5c2 2.1 4.7 2 5.9 2.2 4.3.4 15 .6 15 .6s8 0 15.5-.6c1.1-.1 3.4-.1 5.4-2.2C54.5 48.8 55 45 55 45s.5-4.5.5-9.1v-4.3c0-4.5-.5-9.1-.5-9.1Z" fill="white"/><path d="M27.5 41.5V25.8L42 33.7Z" fill="#FF0000"/></svg>